<svg xmlns="http://www.w3.org/2000/svg" width="34.213" height="34.213" viewBox="0 0 34.213 34.213">
  <g id="clock_1_" data-name="clock (1)" transform="translate(0)">
    <path id="Path_166" data-name="Path 166" d="M29.2,5.01A17.107,17.107,0,0,0,5.01,29.2,17.107,17.107,0,0,0,29.2,5.01Zm-.756,23.436A16.037,16.037,0,0,1,5.766,5.766a16.037,16.037,0,0,1,22.68,22.68Z" fill="#c4974e"/>
    <path id="Path_167" data-name="Path 167" d="M33.069,46.968A13.9,13.9,0,0,1,54.69,35.41a.535.535,0,1,0,.595-.888A14.969,14.969,0,0,0,35.811,56.947a.535.535,0,0,0,.8-.713A13.875,13.875,0,0,1,33.069,46.968Z" transform="translate(-29.862 -29.862)" fill="#c4974e"/>
    <path id="Path_168" data-name="Path 168" d="M134.06,128.233a.535.535,0,0,0-.888.595,13.9,13.9,0,0,1-20.31,18.52.535.535,0,1,0-.674.83,14.97,14.97,0,0,0,21.872-19.945Z" transform="translate(-104.506 -119.443)" fill="#c4974e"/>
    <path id="Path_169" data-name="Path 169" d="M392.171,87.926a14.019,14.019,0,0,1,1.03,1.023.535.535,0,0,0,.792-.719,15.123,15.123,0,0,0-1.109-1.1.535.535,0,0,0-.713.8Z" transform="translate(-365.799 -81.18)" fill="#c4974e"/>
    <path id="Path_170" data-name="Path 170" d="M248.535,66.673a.535.535,0,0,0,.535-.535v-1.6a.535.535,0,1,0-1.069,0v1.6A.535.535,0,0,0,248.535,66.673Z" transform="translate(-231.428 -59.723)" fill="#c4974e"/>
    <path id="Path_171" data-name="Path 171" d="M248,408.535v1.6a.535.535,0,0,0,1.069,0v-1.6a.535.535,0,0,0-1.069,0Z" transform="translate(-231.428 -380.737)" fill="#c4974e"/>
    <path id="Path_172" data-name="Path 172" d="M66.673,248.535a.535.535,0,0,0-.535-.535h-1.6a.535.535,0,0,0,0,1.069h1.6A.535.535,0,0,0,66.673,248.535Z" transform="translate(-59.723 -231.428)" fill="#c4974e"/>
    <path id="Path_173" data-name="Path 173" d="M408,248.535a.535.535,0,0,0,.535.535h1.6a.535.535,0,1,0,0-1.069h-1.6A.535.535,0,0,0,408,248.535Z" transform="translate(-380.737 -231.428)" fill="#c4974e"/>
    <path id="Path_174" data-name="Path 174" d="M157.8,90.306l-.8-1.389a.535.535,0,1,0-.926.535l.8,1.389a.535.535,0,1,0,.926-.535Z" transform="translate(-145.575 -82.726)" fill="#c4974e"/>
    <path id="Path_175" data-name="Path 175" d="M329,386.831a.535.535,0,0,0-.926.535l.8,1.389a.535.535,0,0,0,.926-.535Z" transform="translate(-306.081 -360.733)" fill="#c4974e"/>
    <path id="Path_176" data-name="Path 176" d="M89.186,329.871a.533.533,0,0,0,.267-.072l1.389-.8a.535.535,0,1,0-.535-.926l-1.389.8a.535.535,0,0,0,.268,1Z" transform="translate(-82.727 -306.082)" fill="#c4974e"/>
    <path id="Path_177" data-name="Path 177" d="M387.1,157.871a.533.533,0,0,0,.267-.072l1.389-.8a.535.535,0,0,0-.535-.926l-1.389.8a.535.535,0,0,0,.268,1Z" transform="translate(-360.732 -145.576)" fill="#c4974e"/>
    <path id="Path_178" data-name="Path 178" d="M329.6,88.721a.534.534,0,0,0-.73.2l-.8,1.389a.535.535,0,1,0,.926.535l.8-1.389A.535.535,0,0,0,329.6,88.721Z" transform="translate(-306.081 -82.726)" fill="#c4974e"/>
    <path id="Path_179" data-name="Path 179" d="M157.6,386.635a.535.535,0,0,0-.73.2l-.8,1.389a.535.535,0,1,0,.926.535l.8-1.389A.535.535,0,0,0,157.6,386.635Z" transform="translate(-145.575 -360.732)" fill="#c4974e"/>
    <path id="Path_180" data-name="Path 180" d="M386.831,329l1.389.8a.535.535,0,1,0,.535-.926l-1.389-.8a.535.535,0,0,0-.535.926Z" transform="translate(-360.732 -306.081)" fill="#c4974e"/>
    <path id="Path_181" data-name="Path 181" d="M90.841,156.872l-1.389-.8a.535.535,0,1,0-.535.926l1.389.8a.535.535,0,1,0,.535-.926Z" transform="translate(-82.726 -145.574)" fill="#c4974e"/>
    <path id="Path_182" data-name="Path 182" d="M237.325,136.067a.535.535,0,0,0,.462-.8l-2.966-5.137a1.6,1.6,0,0,0-.684-2.553v-7.041a.535.535,0,0,0-1.069,0v7.041a1.6,1.6,0,0,0,.827,3.088l2.965,5.136A.534.534,0,0,0,237.325,136.067Zm-4.256-6.98a.535.535,0,1,1,.535.535A.535.535,0,0,1,233.069,129.088Z" transform="translate(-216.497 -111.981)" fill="#c4974e"/>
  </g>
</svg>
