<svg xmlns="http://www.w3.org/2000/svg" width="34.213" height="38.019" viewBox="0 0 34.213 38.019">
  <g id="calendar" transform="translate(-25.627)">
    <path id="Path_165" data-name="Path 165" d="M52.759,18.672h2.652A1.089,1.089,0,0,0,56.5,17.584V14.932a1.089,1.089,0,0,0-1.087-1.087H52.759a1.089,1.089,0,0,0-1.087,1.087v2.652A1.089,1.089,0,0,0,52.759,18.672Zm.027-3.713h2.6v2.6h-2.6Zm-.027,10.767h2.652A1.089,1.089,0,0,0,56.5,24.639V21.987A1.089,1.089,0,0,0,55.411,20.9H52.759a1.089,1.089,0,0,0-1.087,1.087v2.652A1.089,1.089,0,0,0,52.759,25.726Zm.027-3.713h2.6v2.6h-2.6Zm-7.594-3.341h2.652a1.089,1.089,0,0,0,1.087-1.087V14.932a1.089,1.089,0,0,0-1.087-1.087H45.191A1.089,1.089,0,0,0,44.1,14.932v2.652A1.089,1.089,0,0,0,45.191,18.672Zm.027-3.713h2.6v2.6h-2.6ZM32.708,27.623H30.056a1.089,1.089,0,0,0-1.087,1.087v2.652a1.089,1.089,0,0,0,1.087,1.087h2.652a1.089,1.089,0,0,0,1.087-1.087V28.71A1.089,1.089,0,0,0,32.708,27.623Zm-.027,3.713h-2.6v-2.6h2.6Zm.027-17.491H30.056a1.089,1.089,0,0,0-1.087,1.087v2.652a1.089,1.089,0,0,0,1.087,1.087h2.652a1.089,1.089,0,0,0,1.087-1.087V14.932A1.089,1.089,0,0,0,32.708,13.845Zm-.027,3.713h-2.6v-2.6h2.6Zm12.51,8h2.652a1.089,1.089,0,0,0,1.087-1.087V21.821a1.089,1.089,0,0,0-1.087-1.087H45.191A1.089,1.089,0,0,0,44.1,21.821v2.652A1.089,1.089,0,0,0,45.191,25.561Zm.027-3.713h2.6v2.6h-2.6Zm11.834-19.3H54.67V1.694A1.7,1.7,0,0,0,52.977,0h-.256a1.7,1.7,0,0,0-1.693,1.694v.851H34.439V1.694A1.7,1.7,0,0,0,32.746,0H32.49A1.7,1.7,0,0,0,30.8,1.694v.851H28.415a2.791,2.791,0,0,0-2.788,2.788v29.9a2.788,2.788,0,0,0,2.785,2.785H57.055a2.788,2.788,0,0,0,2.785-2.785V5.333a2.792,2.792,0,0,0-2.788-2.788Zm-4.91-.851a.58.58,0,0,1,.58-.58h.256a.58.58,0,0,1,.58.58v.851H52.142Zm-20.231,0a.58.58,0,0,1,.58-.58h.256a.58.58,0,0,1,.58.58v.851H31.91V1.694ZM58.726,35.234A1.673,1.673,0,0,1,57.055,36.9H28.411a1.673,1.673,0,0,1-1.671-1.671v0a2.774,2.774,0,0,0,1.675.56H51a2.77,2.77,0,0,0,1.972-.817l5.759-5.759ZM52.4,33.967a2.382,2.382,0,0,0,.067-.562V29.688a1.273,1.273,0,0,1,1.271-1.271h3.717a2.382,2.382,0,0,0,.562-.067ZM58.726,10.5H35a.557.557,0,1,0,0,1.114h23.73V26.032A1.273,1.273,0,0,1,57.455,27.3H53.737a2.388,2.388,0,0,0-2.385,2.385v3.718a1.273,1.273,0,0,1-1.271,1.271H28.415A1.676,1.676,0,0,1,26.741,33V11.618h6.028a.557.557,0,1,0,0-1.114H26.741V5.333a1.676,1.676,0,0,1,1.674-1.674H30.8V5.3A1.7,1.7,0,0,0,32.49,6.99a.557.557,0,1,0,0-1.114.58.58,0,0,1-.58-.58V3.659H51.028V5.3A1.7,1.7,0,0,0,52.721,6.99a.557.557,0,1,0,0-1.114.58.58,0,0,1-.58-.58V3.659h4.91a1.676,1.676,0,0,1,1.674,1.674ZM32.708,20.734H30.056a1.089,1.089,0,0,0-1.087,1.087v2.652a1.089,1.089,0,0,0,1.087,1.087h2.652a1.089,1.089,0,0,0,1.087-1.087V21.821A1.089,1.089,0,0,0,32.708,20.734Zm-.027,3.713h-2.6v-2.6h2.6Zm4.942-5.775h2.652a1.089,1.089,0,0,0,1.087-1.087V14.932a1.089,1.089,0,0,0-1.087-1.087H37.624a1.089,1.089,0,0,0-1.087,1.087v2.652A1.089,1.089,0,0,0,37.624,18.672Zm.027-3.713h2.6v2.6h-2.6Zm7.567,16.377a.557.557,0,0,0-1.113.027,1.089,1.089,0,0,0,1.087,1.087h2.652a1.089,1.089,0,0,0,1.087-1.087V28.71a1.089,1.089,0,0,0-1.087-1.087H45.191A1.089,1.089,0,0,0,44.1,28.71v.765a.557.557,0,0,0,1.114,0v-.738h2.6v2.6Zm-7.594-5.775h2.652a1.089,1.089,0,0,0,1.087-1.087V21.821a1.089,1.089,0,0,0-1.087-1.087H37.624a1.089,1.089,0,0,0-1.087,1.087v2.652A1.089,1.089,0,0,0,37.624,25.561Zm.027-3.713h2.6v2.6h-2.6Zm-.027,10.6h2.652a1.089,1.089,0,0,0,1.087-1.087V28.71a1.089,1.089,0,0,0-1.087-1.087H37.624a1.089,1.089,0,0,0-1.087,1.087v2.652A1.089,1.089,0,0,0,37.624,32.45Zm.027-3.713h2.6v2.6h-2.6Z" fill="#c4974e"/>
  </g>
</svg>
