<svg id="email_4_" data-name="email (4)" xmlns="http://www.w3.org/2000/svg" width="52.452" height="48.646" viewBox="0 0 52.452 48.646">
  <path id="Path_183" data-name="Path 183" d="M52.063,36.581h0l-6.7-4.44V17.3a.869.869,0,0,0-.869-.869H7.954a.869.869,0,0,0-.869.869V32.141l-6.7,4.439h0A.868.868,0,0,0,0,37.3v26.9a.869.869,0,0,0,.869.869H51.583a.869.869,0,0,0,.869-.869V37.3a.868.868,0,0,0-.389-.724ZM7.085,39.619,4.36,38.173H7.085Zm-5.348-.87,19.978,10.6L1.737,62.588ZM26.226,48.44,48.7,63.338H3.751Zm4.511.906,19.978-10.6v23.84L30.737,49.346ZM45.365,38.173h2.726l-2.726,1.446ZM48.7,36.436H45.365V34.225ZM43.628,18.167V40.541l-14.54,7.713-2.383-1.58a.869.869,0,0,0-.96,0l-2.383,1.579L8.823,40.54V18.167ZM7.085,36.436H3.751l3.334-2.21Z" transform="translate(0 -16.43)" fill="#c4974e"/>
  <path id="Path_184" data-name="Path 184" d="M166.951,92.785h6.921a.869.869,0,1,0,0-1.737h-6.921A6.059,6.059,0,0,1,160.9,85v-.256a6.053,6.053,0,1,1,12.105,0v.641a1.31,1.31,0,0,1-2.621,0V84.162a3.759,3.759,0,1,0-1.281,2.82,3.047,3.047,0,0,0,5.639-1.6v-.641a7.79,7.79,0,1,0-15.58,0V85a7.8,7.8,0,0,0,7.79,7.79Zm-.32-6.608a2.015,2.015,0,1,1,2.015-2.015A2.017,2.017,0,0,1,166.63,86.177Z" transform="translate(-140.726 -69.939)" fill="#c4974e"/>
</svg>
